<mxfile host="app.diagrams.net" modified="2024-05-28T14:06:53.905Z" agent="Mozilla/5.0 (X11; Linux x86_64) AppleWebKit/537.36 (KHTML, like Gecko) Chrome/125.0.0.0 Safari/537.36" etag="PLhu9qm_QiR4-iil9ARl" version="24.4.8" type="device">
  <diagram name="Страница — 1" id="n1kZpoMG0njFAoC9K-vx">
    <mxGraphModel dx="709" dy="809" grid="1" gridSize="10" guides="1" tooltips="1" connect="1" arrows="1" fold="1" page="1" pageScale="1" pageWidth="1169" pageHeight="827" math="0" shadow="0">
      <root>
        <mxCell id="0" />
        <mxCell id="1" parent="0" />
        <mxCell id="e8OYn5whIqRIcfVyCU0S-26" style="edgeStyle=orthogonalEdgeStyle;rounded=0;orthogonalLoop=1;jettySize=auto;html=1;exitX=0.5;exitY=1;exitDx=0;exitDy=0;entryX=0.5;entryY=0;entryDx=0;entryDy=0;fontSize=18;strokeColor=default;strokeWidth=2;" edge="1" parent="1" source="e8OYn5whIqRIcfVyCU0S-5" target="e8OYn5whIqRIcfVyCU0S-7">
          <mxGeometry relative="1" as="geometry" />
        </mxCell>
        <mxCell id="e8OYn5whIqRIcfVyCU0S-27" style="edgeStyle=orthogonalEdgeStyle;rounded=0;orthogonalLoop=1;jettySize=auto;html=1;exitX=0.5;exitY=1;exitDx=0;exitDy=0;entryX=0.5;entryY=0;entryDx=0;entryDy=0;fontSize=18;strokeColor=default;strokeWidth=2;" edge="1" parent="1" source="e8OYn5whIqRIcfVyCU0S-5" target="e8OYn5whIqRIcfVyCU0S-6">
          <mxGeometry relative="1" as="geometry" />
        </mxCell>
        <mxCell id="e8OYn5whIqRIcfVyCU0S-28" style="edgeStyle=orthogonalEdgeStyle;rounded=0;orthogonalLoop=1;jettySize=auto;html=1;exitX=0.5;exitY=1;exitDx=0;exitDy=0;fontSize=18;strokeColor=default;strokeWidth=2;" edge="1" parent="1" source="e8OYn5whIqRIcfVyCU0S-5" target="e8OYn5whIqRIcfVyCU0S-8">
          <mxGeometry relative="1" as="geometry" />
        </mxCell>
        <mxCell id="e8OYn5whIqRIcfVyCU0S-5" value="Bean Scopes" style="rounded=1;whiteSpace=wrap;html=1;fontSize=18;fillColor=#dae8fc;strokeColor=default;strokeWidth=2;" vertex="1" parent="1">
          <mxGeometry x="480" y="60" width="120" height="60" as="geometry" />
        </mxCell>
        <mxCell id="e8OYn5whIqRIcfVyCU0S-19" style="edgeStyle=orthogonalEdgeStyle;rounded=0;orthogonalLoop=1;jettySize=auto;html=1;exitX=0.5;exitY=1;exitDx=0;exitDy=0;entryX=0;entryY=0.5;entryDx=0;entryDy=0;fontSize=18;strokeColor=default;strokeWidth=2;" edge="1" parent="1" source="e8OYn5whIqRIcfVyCU0S-6" target="e8OYn5whIqRIcfVyCU0S-9">
          <mxGeometry relative="1" as="geometry" />
        </mxCell>
        <mxCell id="e8OYn5whIqRIcfVyCU0S-20" style="edgeStyle=orthogonalEdgeStyle;rounded=0;orthogonalLoop=1;jettySize=auto;html=1;exitX=0.5;exitY=1;exitDx=0;exitDy=0;entryX=0;entryY=0.5;entryDx=0;entryDy=0;fontSize=18;strokeColor=default;strokeWidth=2;" edge="1" parent="1" source="e8OYn5whIqRIcfVyCU0S-6" target="e8OYn5whIqRIcfVyCU0S-10">
          <mxGeometry relative="1" as="geometry" />
        </mxCell>
        <mxCell id="e8OYn5whIqRIcfVyCU0S-21" style="edgeStyle=orthogonalEdgeStyle;rounded=0;orthogonalLoop=1;jettySize=auto;html=1;exitX=0.5;exitY=1;exitDx=0;exitDy=0;entryX=0;entryY=0.5;entryDx=0;entryDy=0;fontSize=18;strokeColor=default;strokeWidth=2;" edge="1" parent="1" source="e8OYn5whIqRIcfVyCU0S-6" target="e8OYn5whIqRIcfVyCU0S-11">
          <mxGeometry relative="1" as="geometry" />
        </mxCell>
        <mxCell id="e8OYn5whIqRIcfVyCU0S-6" value="Common&lt;div style=&quot;&quot;&gt;&lt;font style=&quot;font-size: 11px;&quot;&gt;ApplicationContext&lt;/font&gt;&lt;/div&gt;" style="rounded=1;whiteSpace=wrap;html=1;fontSize=18;fillColor=#f8cecc;strokeColor=default;strokeWidth=2;" vertex="1" parent="1">
          <mxGeometry x="260" y="160" width="120" height="60" as="geometry" />
        </mxCell>
        <mxCell id="e8OYn5whIqRIcfVyCU0S-22" style="edgeStyle=orthogonalEdgeStyle;rounded=0;orthogonalLoop=1;jettySize=auto;html=1;exitX=0.5;exitY=1;exitDx=0;exitDy=0;entryX=0;entryY=0.5;entryDx=0;entryDy=0;fontSize=18;strokeColor=default;strokeWidth=2;" edge="1" parent="1" source="e8OYn5whIqRIcfVyCU0S-7" target="e8OYn5whIqRIcfVyCU0S-12">
          <mxGeometry relative="1" as="geometry" />
        </mxCell>
        <mxCell id="e8OYn5whIqRIcfVyCU0S-23" style="edgeStyle=orthogonalEdgeStyle;rounded=0;orthogonalLoop=1;jettySize=auto;html=1;exitX=0.5;exitY=1;exitDx=0;exitDy=0;entryX=0;entryY=0.5;entryDx=0;entryDy=0;fontSize=18;strokeColor=default;strokeWidth=2;" edge="1" parent="1" source="e8OYn5whIqRIcfVyCU0S-7" target="e8OYn5whIqRIcfVyCU0S-16">
          <mxGeometry relative="1" as="geometry" />
        </mxCell>
        <mxCell id="e8OYn5whIqRIcfVyCU0S-24" style="edgeStyle=orthogonalEdgeStyle;rounded=0;orthogonalLoop=1;jettySize=auto;html=1;exitX=0.5;exitY=1;exitDx=0;exitDy=0;entryX=0;entryY=0.5;entryDx=0;entryDy=0;fontSize=18;strokeColor=default;strokeWidth=2;" edge="1" parent="1" source="e8OYn5whIqRIcfVyCU0S-7" target="e8OYn5whIqRIcfVyCU0S-17">
          <mxGeometry relative="1" as="geometry" />
        </mxCell>
        <mxCell id="e8OYn5whIqRIcfVyCU0S-25" style="edgeStyle=orthogonalEdgeStyle;rounded=0;orthogonalLoop=1;jettySize=auto;html=1;exitX=0.5;exitY=1;exitDx=0;exitDy=0;entryX=0;entryY=0.5;entryDx=0;entryDy=0;fontSize=18;strokeColor=default;strokeWidth=2;" edge="1" parent="1" source="e8OYn5whIqRIcfVyCU0S-7" target="e8OYn5whIqRIcfVyCU0S-18">
          <mxGeometry relative="1" as="geometry" />
        </mxCell>
        <mxCell id="e8OYn5whIqRIcfVyCU0S-7" value="Web&lt;div style=&quot;&quot;&gt;&lt;font style=&quot;font-size: 11px;&quot;&gt;WebApplicationContext&lt;/font&gt;&lt;br style=&quot;font-size: 18px;&quot;&gt;&lt;/div&gt;" style="rounded=1;whiteSpace=wrap;html=1;fontSize=18;fillColor=#f8cecc;strokeColor=default;strokeWidth=2;" vertex="1" parent="1">
          <mxGeometry x="480" y="160" width="120" height="60" as="geometry" />
        </mxCell>
        <mxCell id="e8OYn5whIqRIcfVyCU0S-8" value="Custom" style="rounded=1;whiteSpace=wrap;html=1;fontSize=18;fillColor=#f8cecc;strokeColor=default;strokeWidth=2;" vertex="1" parent="1">
          <mxGeometry x="700" y="160" width="120" height="60" as="geometry" />
        </mxCell>
        <mxCell id="e8OYn5whIqRIcfVyCU0S-9" value="Singleton" style="rounded=1;whiteSpace=wrap;html=1;fontSize=18;fillColor=#d5e8d4;strokeColor=default;strokeWidth=2;" vertex="1" parent="1">
          <mxGeometry x="340" y="260" width="120" height="60" as="geometry" />
        </mxCell>
        <mxCell id="e8OYn5whIqRIcfVyCU0S-10" value="Prototype" style="rounded=1;whiteSpace=wrap;html=1;fontSize=18;fillColor=#d5e8d4;strokeColor=default;strokeWidth=2;" vertex="1" parent="1">
          <mxGeometry x="340" y="360" width="120" height="60" as="geometry" />
        </mxCell>
        <mxCell id="e8OYn5whIqRIcfVyCU0S-11" value="Thread" style="rounded=1;whiteSpace=wrap;html=1;fontSize=18;fillColor=#fff2cc;strokeColor=default;strokeWidth=2;" vertex="1" parent="1">
          <mxGeometry x="340" y="460" width="120" height="60" as="geometry" />
        </mxCell>
        <mxCell id="e8OYn5whIqRIcfVyCU0S-12" value="Request" style="rounded=1;whiteSpace=wrap;html=1;fontSize=18;fillColor=#d5e8d4;strokeColor=default;strokeWidth=2;" vertex="1" parent="1">
          <mxGeometry x="560" y="260" width="120" height="60" as="geometry" />
        </mxCell>
        <mxCell id="e8OYn5whIqRIcfVyCU0S-16" value="Session" style="rounded=1;whiteSpace=wrap;html=1;fontSize=18;fillColor=#d5e8d4;strokeColor=default;strokeWidth=2;" vertex="1" parent="1">
          <mxGeometry x="560" y="360" width="120" height="60" as="geometry" />
        </mxCell>
        <mxCell id="e8OYn5whIqRIcfVyCU0S-17" value="Application" style="rounded=1;whiteSpace=wrap;html=1;fontSize=18;fillColor=#d5e8d4;strokeColor=default;strokeWidth=2;" vertex="1" parent="1">
          <mxGeometry x="560" y="460" width="120" height="60" as="geometry" />
        </mxCell>
        <mxCell id="e8OYn5whIqRIcfVyCU0S-18" value="Websocket" style="rounded=1;whiteSpace=wrap;html=1;fontSize=18;fillColor=#d5e8d4;strokeColor=default;strokeWidth=2;" vertex="1" parent="1">
          <mxGeometry x="560" y="560" width="120" height="60" as="geometry" />
        </mxCell>
      </root>
    </mxGraphModel>
  </diagram>
</mxfile>
